<?xml version="1.0" encoding="UTF-8"?>
<svg width="512px" height="352px" viewBox="0 0 512 352" version="1.1" xmlns="http://www.w3.org/2000/svg" xmlns:xlink="http://www.w3.org/1999/xlink">
    <!-- Generator: Sketch 45.2 (43514) - http://www.bohemiancoding.com/sketch -->
    <title>Untitled</title>
    <desc>Created with Sketch.</desc>
    <defs></defs>
    <g id="Page-1" stroke="none" stroke-width="1" fill="none" fill-rule="evenodd">
        <g id="laptop" fill-rule="nonzero">
            <path d="M478.85,40.557 L478.85,280.753 L33.156,280.753 L33.156,40.557 C33.156,23.14 47.27,9.025 64.676,9.025 L447.319,9.025 C464.736,9.026 478.85,23.14 478.85,40.557 Z" id="Shape" fill="#CCCCCC"></path>
            <path d="M478.85,40.557 L478.85,280.753 L215.991,280.753 L292.174,9.025 L447.318,9.025 C464.736,9.026 478.85,23.14 478.85,40.557 Z" id="Shape" fill="#E6E6E6"></path>
            <rect id="Rectangle-path" fill="#FFBB11" x="33.155" y="48.504" width="445.694" height="232.253"></rect>
            <path d="M503.433,280.752 L503.433,305.164 C503.433,325.77 486.724,342.467 466.118,342.467 L45.876,342.467 C25.27,342.467 8.573,325.77 8.573,305.164 L8.573,280.752 L503.433,280.752 Z" id="Shape" fill="#CCCCCC"></path>
            <polygon id="Shape" fill="#FFCA70" points="478.85 48.5 478.85 280.752 215.991 280.752 281.112 48.5"></polygon>
            <path d="M503.433,280.752 L503.433,305.164 C503.433,325.77 486.724,342.467 466.118,342.467 L249.088,342.467 L266.391,280.752 L503.433,280.752 L503.433,280.752 Z" id="Shape" fill="#E6E6E6"></path>
            <path d="M294.121,311.611 L217.878,311.611 C205.796,311.611 196.001,301.817 196.001,289.734 L196.001,280.753 L315.996,280.753 L315.996,289.734 C315.998,301.816 306.203,311.611 294.121,311.611 Z" id="Shape" fill="#999999"></path>
            <path d="M503.429,272.433 L487.42,272.433 L487.42,39.537 C487.42,23.898 478.113,9.856 463.708,3.763 C459.348,1.92 454.318,3.958 452.474,8.318 C450.631,12.678 452.669,17.708 457.029,19.552 C465.077,22.955 470.277,30.8 470.277,39.537 L470.277,272.433 L434.958,272.433 C430.224,272.433 426.386,276.271 426.386,281.005 C426.386,285.739 430.224,289.576 434.958,289.576 L494.858,289.576 L494.858,305.415 C494.858,321.259 481.969,334.148 466.125,334.148 L45.876,334.148 C30.032,334.147 17.143,321.258 17.143,305.414 L17.143,289.575 L187.431,289.575 L187.431,289.984 C187.431,306.773 201.089,320.432 217.879,320.432 L294.121,320.432 C310.91,320.432 324.569,306.774 324.569,289.984 L324.569,289.575 L404.672,289.575 C409.406,289.575 413.244,285.737 413.244,281.003 C413.244,276.269 409.406,272.432 404.672,272.432 L41.724,272.432 L41.724,129.275 C41.724,124.541 37.886,120.704 33.153,120.704 C28.42,120.704 24.582,124.542 24.582,129.275 L24.582,272.434 L8.571,272.434 C3.837,272.434 0,276.272 0,281.005 L0,305.415 C0,330.711 20.58,351.291 45.876,351.291 L466.123,351.291 C491.419,351.291 511.999,330.711 511.999,305.415 L511.999,281.005 C512,276.271 508.162,272.433 503.429,272.433 Z M307.426,289.576 L307.426,289.985 C307.426,297.321 301.457,303.29 294.121,303.29 L217.879,303.29 C210.543,303.29 204.574,297.322 204.574,289.985 L204.574,289.576 L307.426,289.576 Z" id="Shape" fill="#000000" stroke="#000000"></path>
            <path d="M33.152,103.562 C37.886,103.562 41.723,99.724 41.723,94.991 L41.723,39.537 C41.723,27.579 51.451,17.851 63.41,17.851 L426.008,17.851 C430.742,17.851 434.58,14.013 434.58,9.28 C434.58,4.546 430.742,0.709 426.008,0.709 L63.41,0.709 C42,0.709 24.58,18.127 24.58,39.538 L24.58,94.992 C24.581,99.726 28.418,103.562 33.152,103.562 Z" id="Shape" fill="#000000" stroke="#000"></path>
            <path d="M178.328,115.066 L178.328,198.495 C178.328,216.14 192.684,230.495 210.328,230.495 C227.972,230.495 242.328,216.139 242.328,198.495 L242.328,115.066 C242.328,97.421 227.972,83.066 210.328,83.066 C192.684,83.066 178.328,97.421 178.328,115.066 Z M225.186,115.066 L225.186,198.495 C225.186,206.687 218.521,213.352 210.329,213.352 C202.137,213.352 195.472,206.687 195.472,198.495 L195.472,115.066 C195.472,106.874 202.137,100.209 210.329,100.209 C218.52,100.209 225.186,106.873 225.186,115.066 Z" id="Shape" fill="#000000" stroke="#000"></path>
            <path d="M415.323,100.209 C420.057,100.209 423.895,96.371 423.895,91.638 C423.895,86.905 420.057,83.067 415.323,83.067 L368.466,83.067 C363.732,83.067 359.895,86.905 359.895,91.638 L359.895,221.925 C359.895,226.659 363.733,230.497 368.466,230.497 L415.323,230.497 C420.057,230.497 423.895,226.659 423.895,221.925 C423.895,217.191 420.057,213.354 415.323,213.354 L377.037,213.354 L377.037,165.506 L395.997,165.506 C400.731,165.506 404.568,161.668 404.568,156.935 C404.568,152.201 400.73,148.364 395.997,148.364 L377.037,148.364 L377.037,100.212 L415.323,100.212 L415.323,100.209 Z" id="Shape" fill="#000000" stroke="#000"></path>
            <path d="M120.106,100.209 C128.298,100.209 134.963,106.874 134.963,115.066 C134.963,119.8 138.801,123.637 143.534,123.637 C148.267,123.637 152.105,119.799 152.105,115.066 C152.105,97.421 137.749,83.066 120.105,83.066 C102.461,83.066 88.105,97.422 88.105,115.066 L88.105,198.495 C88.105,216.14 102.461,230.495 120.105,230.495 C137.749,230.495 152.105,216.139 152.105,198.495 C152.105,193.761 148.267,189.923 143.534,189.923 C138.8,189.923 134.963,193.761 134.963,198.495 C134.963,206.687 128.298,213.352 120.106,213.352 C111.914,213.352 105.249,206.687 105.249,198.495 L105.249,115.066 C105.249,106.873 111.913,100.209 120.106,100.209 Z" id="Shape" fill="#000000"></path>
            <path d="M277.123,124.306 C272.389,124.306 268.551,128.144 268.551,132.877 L268.551,221.923 C268.551,226.657 272.389,230.495 277.123,230.495 L300.552,230.495 C318.197,230.495 332.552,216.139 332.552,198.495 L332.552,115.066 C332.552,97.421 318.196,83.066 300.552,83.066 L277.123,83.066 C272.389,83.066 268.552,86.904 268.552,91.637 L268.552,106.591 C268.552,111.325 272.39,115.162 277.123,115.162 C281.857,115.162 285.695,111.324 285.695,106.591 L285.695,100.208 L300.552,100.208 C308.744,100.208 315.409,106.873 315.409,115.065 L315.409,198.494 C315.409,206.686 308.744,213.351 300.552,213.351 L285.695,213.351 L285.695,132.876 C285.694,128.144 281.857,124.306 277.123,124.306 Z" id="Shape" fill="#000000"></path>
            <path d="M456.001,48.752 C456.001,44.018 452.163,40.181 447.43,40.181 L64.57,40.181 C59.836,40.181 55.999,44.019 55.999,48.752 C55.999,53.486 59.837,57.323 64.57,57.323 L447.43,57.323 C452.163,57.323 456.001,53.487 456.001,48.752 Z" id="Shape" fill="#000000"></path>
        </g>
    </g>
</svg>
